HIERARCHY
ROOT hip
{
	OFFSET 0.000000 0.000000 0.000000 
	CHANNELS 6 Xposition Yposition Zposition Xrotation Zrotation Yrotation
	JOINT abdomen
	{
		OFFSET 0.000000 3.402643 0.000000 
		CHANNELS 3 Xrotation Zrotation Yrotation
		JOINT chest
		{
			OFFSET 0.000000 8.438565 -0.680529 
			CHANNELS 3 Xrotation Zrotation Yrotation
			JOINT neck
			{
				OFFSET 0.000000 10.207942 -0.272212 
				CHANNELS 3 Xrotation Zrotation Yrotation
				JOINT head
				{
					OFFSET 0.000000 3.130431 0.000000 
					CHANNELS 3 Xrotation Zrotation Yrotation
					End Site
					{
						OFFSET 0.000000 3.130435 0.000000 
					}
				}
			}
			JOINT lCollar
			{
				OFFSET 3.470700 6.669187 -0.816635 
				CHANNELS 3 Yrotation Zrotation Xrotation
				JOINT lShldr
				{
					OFFSET 3.198488 0.000000 0.000000 
					CHANNELS 3 Zrotation Yrotation Xrotation
					JOINT lForeArm
					{
						OFFSET 10.139888 0.000000 0.000000 
						CHANNELS 3 Yrotation Zrotation Xrotation
						JOINT lHand
						{
							OFFSET 8.370511 0.000000 0.000000 
							CHANNELS 3 Zrotation Yrotation Xrotation
							End Site
							{
								OFFSET 4.083176 0.000000 0.000000 
							}
						}
					}
				}
			}
			JOINT rCollar
			{
				OFFSET -3.470700 6.669187 -0.816635 
				CHANNELS 3 Yrotation Zrotation Xrotation
				JOINT rShldr
				{
					OFFSET -3.198488 0.000000 0.000000 
					CHANNELS 3 Zrotation Yrotation Xrotation
					JOINT rForeArm
					{
						OFFSET -10.139888 0.000000 0.000000 
						CHANNELS 3 Yrotation Zrotation Xrotation
						JOINT rHand
						{
							OFFSET -8.370511 0.000000 0.000000 
							CHANNELS 3 Zrotation Yrotation Xrotation
							End Site
							{
								OFFSET -4.083176 0.000000 0.000000 
							}
						}
					}
				}
			}
		}
	}
	JOINT lThigh
	{
		OFFSET 5.308129 -1.633274 1.361059 
		CHANNELS 3 Xrotation Zrotation Yrotation
		JOINT lShin
		{
			OFFSET -2.041588 -20.007561 0.000000 
			CHANNELS 3 Xrotation Zrotation Yrotation
			JOINT lFoot
			{
				OFFSET 0.000000 -19.190928 -1.224953 
				CHANNELS 3 Xrotation Yrotation Zrotation
				End Site
				{
					OFFSET 0.000000 -2.449906 4.627600 
				}
			}
		}
	}
	JOINT rThigh
	{
		OFFSET -5.308129 -1.633274 1.361059 
		CHANNELS 3 Xrotation Zrotation Yrotation
		JOINT rShin
		{
			OFFSET 2.041588 -20.007561 0.000000 
			CHANNELS 3 Xrotation Zrotation Yrotation
			JOINT rFoot
			{
				OFFSET 0.000000 -19.190928 -1.224953 
				CHANNELS 3 Xrotation Yrotation Zrotation
				End Site
				{
					OFFSET 0.000000 -2.449906 4.627600 
				}
			}
		}
	}
}
MOTION
Frames: 8
Frame Time: 0.033333
1.250632 31.793665 1.250632 -1.006142 1.357213 -3.031639 24.572243 6.228677 -16.348881 -6.874539 0.464954 4.107584 6.265071 2.110748 -6.926788 10.524219 0.508720 -0.030344 -10.611230 -1.537597 -14.832758 -54.067715 -25.256548 7.386937 -65.749336 -2.986223 1.606981 24.880581 5.492346 -58.529278 -9.585888 4.051465 -14.629848 86.341377 29.369196 10.800134 70.218330 3.038675 1.503397 62.003891 38.227276 89.088478 -58.515892 9.811468 7.348070 80.894554 2.335380 -4.670037 -22.676741 6.483878 0.839377 -30.623064 -21.246887 -23.506292 100.392464 -3.749222 4.324680 -52.687660 -8.155627 4.167135 
1.250632 30.844223 1.250632 -1.006142 1.357213 -3.031639 24.006714 6.039214 -16.339390 -8.866048 0.793736 0.301365 -7.001564 4.307444 -12.617841 10.524219 0.508720 -0.030344 -16.094444 3.642511 -25.000000 -58.864113 -8.320006 5.481478 -54.635780 -2.804661 1.861218 23.137581 0.217234 -56.040840 -21.417261 7.647630 -25.000000 80.559135 14.443442 18.176565 77.300369 3.113602 1.319022 50.251495 30.429371 67.381645 -60.298878 9.325030 7.560735 84.744980 2.618172 -4.641470 -25.557224 6.914052 1.664021 -31.335119 -22.407742 -22.687172 103.253883 -3.915377 4.250400 -55.118557 -8.046068 5.009193 
1.250632 30.938616 1.250632 -1.006142 1.357213 -3.031639 23.468128 5.858251 -16.354269 -10.799359 0.972063 -3.318685 -19.747665 5.324327 -18.349024 10.524219 0.508720 -0.030344 -20.166553 9.671146 -25.000000 -63.214958 7.622844 2.418860 -43.298668 -2.576927 2.077737 21.023205 -5.052745 -53.381119 -29.154512 14.568921 -25.000000 73.525337 2.137680 28.424469 78.155640 3.118929 1.288921 45.645466 24.596458 56.679237 -59.595791 9.178819 7.711879 82.044067 2.422733 -4.678045 -22.182713 6.926222 1.555709 -31.629639 -22.244291 -22.756161 102.248039 -3.856883 4.274117 -52.563271 -7.977122 4.961605 
1.250632 33.187286 1.250632 -1.006142 1.357213 -3.031639 23.002874 5.735173 -16.416359 -12.420536 1.034414 -6.150430 -29.705284 5.781496 -23.128849 10.524219 0.508720 -0.030344 -22.539585 15.377629 -25.000000 -67.515892 20.059160 -1.342082 -32.398930 -2.313606 2.240823 18.942579 -10.065477 -50.556454 -32.382645 21.548065 -25.000000 66.909142 -9.037609 37.544880 72.834114 3.071868 1.429446 44.476917 22.654846 53.661514 -54.872715 10.214770 7.559609 68.177948 1.429118 -4.603520 -7.987547 5.574547 -0.485241 -31.609825 -19.587786 -24.338804 95.141693 -3.378664 4.459894 -42.311619 -8.360021 2.943591 
1.250632 37.229347 1.250632 -4.517379 4.731417 -11.740105 22.693552 5.687264 -16.573244 -13.485182 1.027299 -7.596659 -34.712780 6.847646 -26.189903 10.524219 0.508720 -0.030344 -23.506178 19.528116 -25.000000 -71.731224 26.498007 -5.185176 -22.619175 -2.063875 2.342084 17.393702 -14.588698 -47.724400 -34.002800 25.000000 -25.000000 61.483845 -16.914984 42.186985 65.877914 2.984561 1.600578 43.783073 21.439531 52.050808 -47.892586 11.988980 7.397673 48.054615 0.074908 -4.107435 12.191418 3.149479 -3.271764 -31.559904 -15.475376 -26.718704 84.637939 -2.617301 4.629838 -27.861612 -9.472601 -0.113467 
1.250632 40.416340 1.250632 -10.972904 8.199051 -24.825203 22.496006 5.740322 -16.867971 -14.012506 1.076939 -7.727483 -34.795334 9.541730 -27.762983 10.524219 0.508720 -0.030344 -23.774317 22.311939 -25.000000 -76.178947 27.101557 -8.740148 -14.581501 -1.845290 2.390587 16.924055 -18.447908 -45.147346 -34.946491 25.000000 -25.000000 59.045891 -21.716183 41.688286 57.761543 2.857156 1.791058 43.403885 20.869291 51.508152 -41.159691 12.860408 7.594803 29.377323 -0.973057 -3.260612 30.699450 1.220681 -4.955461 -31.266653 -11.979137 -28.812531 74.413300 -1.904339 4.642691 -13.490418 -10.740612 -2.230377 
1.250632 44.791534 1.250632 -19.219463 9.841612 -39.757614 22.374662 5.859833 -17.262737 -14.236876 1.203594 -7.141501 -31.922544 13.720784 -28.422651 10.524219 0.508720 -0.030344 -23.885567 24.618540 -25.000000 -81.209572 24.644379 -11.610351 -8.969463 -1.690841 2.404158 18.146305 -21.521610 -43.148121 -35.651707 25.000000 -25.000000 59.272736 -24.528898 37.803947 48.951805 2.686408 1.972177 43.305603 20.848372 51.786289 -37.263138 11.151270 8.115382 19.936916 -1.367801 -2.722189 40.033527 1.778599 -4.364197 -30.161299 -11.136930 -29.525248 68.100510 -1.435358 4.577416 -3.384380 -10.915182 -1.747194 
1.250632 49.533173 1.250632 -27.732868 9.227509 -54.876236 22.294186 6.011106 -17.720242 -14.226747 1.349157 -5.992267 -26.816666 18.653950 -27.855604 10.524219 0.508720 -0.030344 -23.919054 26.303776 -25.000000 -85.970398 20.455704 -12.536112 -5.654712 -1.592693 2.407923 21.666580 -24.065536 -41.795273 -36.031689 25.000000 -25.000000 62.144455 -25.597975 31.488747 39.920441 2.494970 2.125808 43.432636 21.246557 52.614555 -36.198589 6.786254 8.857428 19.202019 -1.396914 -2.669741 40.588524 5.012589 -1.754452 -28.239544 -12.984753 -28.910343 65.655128 -1.259202 4.542173 2.756367 -9.513306 1.086640 
